{
  "asset": {
    "version": "2.0",
    "generator": "THREE.GLTFExporter"
  },
  "scenes": [
    {
      "nodes": [
        0
      ]
    }
  ],
  "scene": 0,
  "nodes": [
    {
      "children": [
        96
      ],
      "matrix": [
        0.01,
        0,
        0,
        0,
        0,
        0.01,
        0,
        0,
        0,
        0,
        0.01,
        0,
        0,
        0,
        0,
        1
      ]
    },
    {
      "matrix": [
        1,
        0,
        0,
        0,
        0,
        1,
        -5.684341886080802e-17,
        0,
        0,
        5.684341886080802e-17,
        1,
        0,
        253.624434638649,
        285.06031558314237,
        999.9999999999999,
        1
      ],
      "name": "Camera",
      "camera": 0
    },
    {
      "matrix": [
        1,
        0,
        0,
        0,
        0,
        1,
        0,
        0,
        0,
        0,
        1,
        0,
        -924.3087926714281,
        -33.92726574082724,
        -313.80949316774115,
        1
      ],
      "name": "Text"
    },
    {
      "matrix": [
        -1,
        0,
        0,
        0,
        0,
        1,
        0,
        0,
        0,
        0,
        1,
        0,
        -545.5486957764249,
        -355.9527732149779,
        -961.8094931677412,
        1
      ],
      "name": "Vector"
    },
    {
      "matrix": [
        -1,
        0,
        0,
        0,
        0,
        1,
        0,
        0,
        0,
        0,
        1,
        0,
        3.090000000000032,
        313.9200000000001,
        -314,
        1
      ],
      "name": "tec hub",
      "mesh": 0
    },
    {
      "matrix": [
        -1.3329674150872228,
        0,
        0,
        0,
        0,
        1.3329674150872228,
        0,
        0,
        0,
        0,
        1.3329674150872228,
        0,
        -766.1861623405034,
        -85.30900492257382,
        -93.78164694104271,
        1
      ],
      "name": "Sphere 2",
      "mesh": 1
    },
    {
      "matrix": [
        -1,
        0,
        0,
        0,
        0,
        1,
        0,
        0,
        0,
        0,
        1,
        0,
        -810.5486957764249,
        322.9527732149779,
        961.8094931677412,
        1
      ],
      "name": "Delete this",
      "children": [
        2,
        3,
        4,
        5
      ]
    },
    {
      "matrix": [
        0.8535051575230566,
        0,
        0,
        0,
        0,
        0.8535051575230566,
        0,
        0,
        0,
        0,
        3.098495865275923,
        0,
        735.7141992165292,
        -412.42158337953344,
        1275.0697384028447,
        1
      ],
      "name": "designgabor"
    },
    {
      "matrix": [
        1,
        0,
        0,
        0,
        0,
        1,
        0,
        0,
        0,
        0,
        1,
        0,
        653.9970270299511,
        -109.02593587897331,
        1274.0204904702068,
        1
      ],
      "name": "Group"
    },
    {
      "matrix": [
        1,
        0,
        0,
        0,
        0,
        1,
        0,
        0,
        0,
        0,
        1,
        0,
        -109.61721375712295,
        1024.4700000000003,
        206.42963192342046,
        1
      ],
      "name": "glass tiles",
      "mesh": 2
    },
    {
      "matrix": [
        1.3329674150872226,
        0,
        0,
        0,
        0,
        1.3329674150872226,
        0,
        0,
        0,
        0,
        1.3329674150872226,
        0,
        87.63746656407812,
        317.64376829240393,
        -901.0515797839191,
        1
      ],
      "name": "Sphere",
      "mesh": 3
    },
    {
      "matrix": [
        0.5883484054145521,
        0.39223227027636803,
        -0.7071067811865475,
        0,
        -0.554700196225229,
        0.8320502943378437,
        0,
        0,
        0.588348405414552,
        0.392232270276368,
        0.7071067811865476,
        0,
        0,
        0,
        0,
        1
      ],
      "name": "Directional Light",
      "extensions": {
        "KHR_lights_punctual": {
          "light": 0
        }
      }
    },
    {
      "matrix": [
        1,
        0,
        0,
        0,
        0,
        1,
        -5.99174854519187e-17,
        0,
        0,
        5.99174854519187e-17,
        1,
        0,
        24.14504337751045,
        273.69994967912606,
        3794.777024603706,
        1
      ],
      "camera": 1
    },
    {
      "matrix": [
        1,
        0,
        0,
        0,
        0,
        1,
        0,
        0,
        0,
        0,
        1,
        0,
        0,
        1,
        0,
        1
      ],
      "name": "Default Ambient Light"
    },
    {
      "matrix": [
        1,
        0,
        0,
        0,
        0,
        1,
        0,
        0,
        0,
        0,
        1,
        0,
        1667.2,
        1247.4,
        0,
        1
      ],
      "mesh": 2
    },
    {
      "matrix": [
        1,
        0,
        0,
        0,
        0,
        1,
        0,
        0,
        0,
        0,
        1,
        0,
        1667.2,
        831.6000000000001,
        0,
        1
      ],
      "mesh": 2
    },
    {
      "matrix": [
        1,
        0,
        0,
        0,
        0,
        1,
        0,
        0,
        0,
        0,
        1,
        0,
        1667.2,
        415.80000000000007,
        0,
        1
      ],
      "mesh": 2
    },
    {
      "matrix": [
        1,
        0,
        0,
        0,
        0,
        1,
        0,
        0,
        0,
        0,
        1,
        0,
        1667.2,
        0,
        0,
        1
      ],
      "mesh": 2
    },
    {
      "matrix": [
        1,
        0,
        0,
        0,
        0,
        1,
        0,
        0,
        0,
        0,
        1,
        0,
        1667.2,
        -415.79999999999995,
        0,
        1
      ],
      "mesh": 2
    },
    {
      "matrix": [
        1,
        0,
        0,
        0,
        0,
        1,
        0,
        0,
        0,
        0,
        1,
        0,
        1667.2,
        -831.5999999999999,
        0,
        1
      ],
      "mesh": 2
    },
    {
      "matrix": [
        1,
        0,
        0,
        0,
        0,
        1,
        0,
        0,
        0,
        0,
        1,
        0,
        1667.2,
        -1247.4,
        0,
        1
      ],
      "mesh": 2
    },
    {
      "matrix": [
        1,
        0,
        0,
        0,
        0,
        1,
        0,
        0,
        0,
        0,
        1,
        0,
        1667.2,
        -1663.1999999999998,
        0,
        1
      ],
      "mesh": 2
    },
    {
      "matrix": [
        1,
        0,
        0,
        0,
        0,
        1,
        0,
        0,
        0,
        0,
        1,
        0,
        1250.4,
        1247.4,
        0,
        1
      ],
      "mesh": 2
    },
    {
      "matrix": [
        1,
        0,
        0,
        0,
        0,
        1,
        0,
        0,
        0,
        0,
        1,
        0,
        1250.4,
        831.6000000000001,
        0,
        1
      ],
      "mesh": 2
    },
    {
      "matrix": [
        1,
        0,
        0,
        0,
        0,
        1,
        0,
        0,
        0,
        0,
        1,
        0,
        1250.4,
        415.80000000000007,
        0,
        1
      ],
      "mesh": 2
    },
    {
      "matrix": [
        1,
        0,
        0,
        0,
        0,
        1,
        0,
        0,
        0,
        0,
        1,
        0,
        1250.4,
        0,
        0,
        1
      ],
      "mesh": 2
    },
    {
      "matrix": [
        1,
        0,
        0,
        0,
        0,
        1,
        0,
        0,
        0,
        0,
        1,
        0,
        1250.4,
        -415.79999999999995,
        0,
        1
      ],
      "mesh": 2
    },
    {
      "matrix": [
        1,
        0,
        0,
        0,
        0,
        1,
        0,
        0,
        0,
        0,
        1,
        0,
        1250.4,
        -831.5999999999999,
        0,
        1
      ],
      "mesh": 2
    },
    {
      "matrix": [
        1,
        0,
        0,
        0,
        0,
        1,
        0,
        0,
        0,
        0,
        1,
        0,
        1250.4,
        -1247.4,
        0,
        1
      ],
      "mesh": 2
    },
    {
      "matrix": [
        1,
        0,
        0,
        0,
        0,
        1,
        0,
        0,
        0,
        0,
        1,
        0,
        1250.4,
        -1663.1999999999998,
        0,
        1
      ],
      "mesh": 2
    },
    {
      "matrix": [
        1,
        0,
        0,
        0,
        0,
        1,
        0,
        0,
        0,
        0,
        1,
        0,
        833.6,
        1247.4,
        0,
        1
      ],
      "mesh": 2
    },
    {
      "matrix": [
        1,
        0,
        0,
        0,
        0,
        1,
        0,
        0,
        0,
        0,
        1,
        0,
        833.6,
        831.6000000000001,
        0,
        1
      ],
      "mesh": 2
    },
    {
      "matrix": [
        1,
        0,
        0,
        0,
        0,
        1,
        0,
        0,
        0,
        0,
        1,
        0,
        833.6,
        415.80000000000007,
        0,
        1
      ],
      "mesh": 2
    },
    {
      "matrix": [
        1,
        0,
        0,
        0,
        0,
        1,
        0,
        0,
        0,
        0,
        1,
        0,
        833.6,
        0,
        0,
        1
      ],
      "mesh": 2
    },
    {
      "matrix": [
        1,
        0,
        0,
        0,
        0,
        1,
        0,
        0,
        0,
        0,
        1,
        0,
        833.6,
        -415.79999999999995,
        0,
        1
      ],
      "mesh": 2
    },
    {
      "matrix": [
        1,
        0,
        0,
        0,
        0,
        1,
        0,
        0,
        0,
        0,
        1,
        0,
        833.6,
        -831.5999999999999,
        0,
        1
      ],
      "mesh": 2
    },
    {
      "matrix": [
        1,
        0,
        0,
        0,
        0,
        1,
        0,
        0,
        0,
        0,
        1,
        0,
        833.6,
        -1247.4,
        0,
        1
      ],
      "mesh": 2
    },
    {
      "matrix": [
        1,
        0,
        0,
        0,
        0,
        1,
        0,
        0,
        0,
        0,
        1,
        0,
        833.6,
        -1663.1999999999998,
        0,
        1
      ],
      "mesh": 2
    },
    {
      "matrix": [
        1,
        0,
        0,
        0,
        0,
        1,
        0,
        0,
        0,
        0,
        1,
        0,
        416.79999999999995,
        1247.4,
        0,
        1
      ],
      "mesh": 2
    },
    {
      "matrix": [
        1,
        0,
        0,
        0,
        0,
        1,
        0,
        0,
        0,
        0,
        1,
        0,
        416.79999999999995,
        831.6000000000001,
        0,
        1
      ],
      "mesh": 2
    },
    {
      "matrix": [
        1,
        0,
        0,
        0,
        0,
        1,
        0,
        0,
        0,
        0,
        1,
        0,
        416.79999999999995,
        415.80000000000007,
        0,
        1
      ],
      "mesh": 2
    },
    {
      "matrix": [
        1,
        0,
        0,
        0,
        0,
        1,
        0,
        0,
        0,
        0,
        1,
        0,
        416.79999999999995,
        0,
        0,
        1
      ],
      "mesh": 2
    },
    {
      "matrix": [
        1,
        0,
        0,
        0,
        0,
        1,
        0,
        0,
        0,
        0,
        1,
        0,
        416.79999999999995,
        -415.79999999999995,
        0,
        1
      ],
      "mesh": 2
    },
    {
      "matrix": [
        1,
        0,
        0,
        0,
        0,
        1,
        0,
        0,
        0,
        0,
        1,
        0,
        416.79999999999995,
        -831.5999999999999,
        0,
        1
      ],
      "mesh": 2
    },
    {
      "matrix": [
        1,
        0,
        0,
        0,
        0,
        1,
        0,
        0,
        0,
        0,
        1,
        0,
        416.79999999999995,
        -1247.4,
        0,
        1
      ],
      "mesh": 2
    },
    {
      "matrix": [
        1,
        0,
        0,
        0,
        0,
        1,
        0,
        0,
        0,
        0,
        1,
        0,
        416.79999999999995,
        -1663.1999999999998,
        0,
        1
      ],
      "mesh": 2
    },
    {
      "matrix": [
        1,
        0,
        0,
        0,
        0,
        1,
        0,
        0,
        0,
        0,
        1,
        0,
        0,
        1247.4,
        0,
        1
      ],
      "mesh": 2
    },
    {
      "matrix": [
        1,
        0,
        0,
        0,
        0,
        1,
        0,
        0,
        0,
        0,
        1,
        0,
        0,
        831.6000000000001,
        0,
        1
      ],
      "mesh": 2
    },
    {
      "matrix": [
        1,
        0,
        0,
        0,
        0,
        1,
        0,
        0,
        0,
        0,
        1,
        0,
        0,
        415.80000000000007,
        0,
        1
      ],
      "mesh": 2
    },
    {
      "mesh": 2
    },
    {
      "matrix": [
        1,
        0,
        0,
        0,
        0,
        1,
        0,
        0,
        0,
        0,
        1,
        0,
        0,
        -415.79999999999995,
        0,
        1
      ],
      "mesh": 2
    },
    {
      "matrix": [
        1,
        0,
        0,
        0,
        0,
        1,
        0,
        0,
        0,
        0,
        1,
        0,
        0,
        -831.5999999999999,
        0,
        1
      ],
      "mesh": 2
    },
    {
      "matrix": [
        1,
        0,
        0,
        0,
        0,
        1,
        0,
        0,
        0,
        0,
        1,
        0,
        0,
        -1247.4,
        0,
        1
      ],
      "mesh": 2
    },
    {
      "matrix": [
        1,
        0,
        0,
        0,
        0,
        1,
        0,
        0,
        0,
        0,
        1,
        0,
        0,
        -1663.1999999999998,
        0,
        1
      ],
      "mesh": 2
    },
    {
      "matrix": [
        1,
        0,
        0,
        0,
        0,
        1,
        0,
        0,
        0,
        0,
        1,
        0,
        -416.79999999999995,
        1247.4,
        0,
        1
      ],
      "mesh": 2
    },
    {
      "matrix": [
        1,
        0,
        0,
        0,
        0,
        1,
        0,
        0,
        0,
        0,
        1,
        0,
        -416.79999999999995,
        831.6000000000001,
        0,
        1
      ],
      "mesh": 2
    },
    {
      "matrix": [
        1,
        0,
        0,
        0,
        0,
        1,
        0,
        0,
        0,
        0,
        1,
        0,
        -416.79999999999995,
        415.80000000000007,
        0,
        1
      ],
      "mesh": 2
    },
    {
      "matrix": [
        1,
        0,
        0,
        0,
        0,
        1,
        0,
        0,
        0,
        0,
        1,
        0,
        -416.79999999999995,
        0,
        0,
        1
      ],
      "mesh": 2
    },
    {
      "matrix": [
        1,
        0,
        0,
        0,
        0,
        1,
        0,
        0,
        0,
        0,
        1,
        0,
        -416.79999999999995,
        -415.79999999999995,
        0,
        1
      ],
      "mesh": 2
    },
    {
      "matrix": [
        1,
        0,
        0,
        0,
        0,
        1,
        0,
        0,
        0,
        0,
        1,
        0,
        -416.79999999999995,
        -831.5999999999999,
        0,
        1
      ],
      "mesh": 2
    },
    {
      "matrix": [
        1,
        0,
        0,
        0,
        0,
        1,
        0,
        0,
        0,
        0,
        1,
        0,
        -416.79999999999995,
        -1247.4,
        0,
        1
      ],
      "mesh": 2
    },
    {
      "matrix": [
        1,
        0,
        0,
        0,
        0,
        1,
        0,
        0,
        0,
        0,
        1,
        0,
        -416.79999999999995,
        -1663.1999999999998,
        0,
        1
      ],
      "mesh": 2
    },
    {
      "matrix": [
        1,
        0,
        0,
        0,
        0,
        1,
        0,
        0,
        0,
        0,
        1,
        0,
        -833.6000000000001,
        1247.4,
        0,
        1
      ],
      "mesh": 2
    },
    {
      "matrix": [
        1,
        0,
        0,
        0,
        0,
        1,
        0,
        0,
        0,
        0,
        1,
        0,
        -833.6000000000001,
        831.6000000000001,
        0,
        1
      ],
      "mesh": 2
    },
    {
      "matrix": [
        1,
        0,
        0,
        0,
        0,
        1,
        0,
        0,
        0,
        0,
        1,
        0,
        -833.6000000000001,
        415.80000000000007,
        0,
        1
      ],
      "mesh": 2
    },
    {
      "matrix": [
        1,
        0,
        0,
        0,
        0,
        1,
        0,
        0,
        0,
        0,
        1,
        0,
        -833.6000000000001,
        0,
        0,
        1
      ],
      "mesh": 2
    },
    {
      "matrix": [
        1,
        0,
        0,
        0,
        0,
        1,
        0,
        0,
        0,
        0,
        1,
        0,
        -833.6000000000001,
        -415.79999999999995,
        0,
        1
      ],
      "mesh": 2
    },
    {
      "matrix": [
        1,
        0,
        0,
        0,
        0,
        1,
        0,
        0,
        0,
        0,
        1,
        0,
        -833.6000000000001,
        -831.5999999999999,
        0,
        1
      ],
      "mesh": 2
    },
    {
      "matrix": [
        1,
        0,
        0,
        0,
        0,
        1,
        0,
        0,
        0,
        0,
        1,
        0,
        -833.6000000000001,
        -1247.4,
        0,
        1
      ],
      "mesh": 2
    },
    {
      "matrix": [
        1,
        0,
        0,
        0,
        0,
        1,
        0,
        0,
        0,
        0,
        1,
        0,
        -833.6000000000001,
        -1663.1999999999998,
        0,
        1
      ],
      "mesh": 2
    },
    {
      "matrix": [
        1,
        0,
        0,
        0,
        0,
        1,
        0,
        0,
        0,
        0,
        1,
        0,
        -1250.3999999999999,
        1247.4,
        0,
        1
      ],
      "mesh": 2
    },
    {
      "matrix": [
        1,
        0,
        0,
        0,
        0,
        1,
        0,
        0,
        0,
        0,
        1,
        0,
        -1250.3999999999999,
        831.6000000000001,
        0,
        1
      ],
      "mesh": 2
    },
    {
      "matrix": [
        1,
        0,
        0,
        0,
        0,
        1,
        0,
        0,
        0,
        0,
        1,
        0,
        -1250.3999999999999,
        415.80000000000007,
        0,
        1
      ],
      "mesh": 2
    },
    {
      "matrix": [
        1,
        0,
        0,
        0,
        0,
        1,
        0,
        0,
        0,
        0,
        1,
        0,
        -1250.3999999999999,
        0,
        0,
        1
      ],
      "mesh": 2
    },
    {
      "matrix": [
        1,
        0,
        0,
        0,
        0,
        1,
        0,
        0,
        0,
        0,
        1,
        0,
        -1250.3999999999999,
        -415.79999999999995,
        0,
        1
      ],
      "mesh": 2
    },
    {
      "matrix": [
        1,
        0,
        0,
        0,
        0,
        1,
        0,
        0,
        0,
        0,
        1,
        0,
        -1250.3999999999999,
        -831.5999999999999,
        0,
        1
      ],
      "mesh": 2
    },
    {
      "matrix": [
        1,
        0,
        0,
        0,
        0,
        1,
        0,
        0,
        0,
        0,
        1,
        0,
        -1250.3999999999999,
        -1247.4,
        0,
        1
      ],
      "mesh": 2
    },
    {
      "matrix": [
        1,
        0,
        0,
        0,
        0,
        1,
        0,
        0,
        0,
        0,
        1,
        0,
        -1250.3999999999999,
        -1663.1999999999998,
        0,
        1
      ],
      "mesh": 2
    },
    {
      "matrix": [
        1,
        0,
        0,
        0,
        0,
        1,
        0,
        0,
        0,
        0,
        1,
        0,
        -1667.2,
        1247.4,
        0,
        1
      ],
      "mesh": 2
    },
    {
      "matrix": [
        1,
        0,
        0,
        0,
        0,
        1,
        0,
        0,
        0,
        0,
        1,
        0,
        -1667.2,
        831.6000000000001,
        0,
        1
      ],
      "mesh": 2
    },
    {
      "matrix": [
        1,
        0,
        0,
        0,
        0,
        1,
        0,
        0,
        0,
        0,
        1,
        0,
        -1667.2,
        415.80000000000007,
        0,
        1
      ],
      "mesh": 2
    },
    {
      "matrix": [
        1,
        0,
        0,
        0,
        0,
        1,
        0,
        0,
        0,
        0,
        1,
        0,
        -1667.2,
        0,
        0,
        1
      ],
      "mesh": 2
    },
    {
      "matrix": [
        1,
        0,
        0,
        0,
        0,
        1,
        0,
        0,
        0,
        0,
        1,
        0,
        -1667.2,
        -415.79999999999995,
        0,
        1
      ],
      "mesh": 2
    },
    {
      "matrix": [
        1,
        0,
        0,
        0,
        0,
        1,
        0,
        0,
        0,
        0,
        1,
        0,
        -1667.2,
        -831.5999999999999,
        0,
        1
      ],
      "mesh": 2
    },
    {
      "matrix": [
        1,
        0,
        0,
        0,
        0,
        1,
        0,
        0,
        0,
        0,
        1,
        0,
        -1667.2,
        -1247.4,
        0,
        1
      ],
      "mesh": 2
    },
    {
      "matrix": [
        1,
        0,
        0,
        0,
        0,
        1,
        0,
        0,
        0,
        0,
        1,
        0,
        -1667.2,
        -1663.1999999999998,
        0,
        1
      ],
      "mesh": 2
    },
    {
      "matrix": [
        1,
        0,
        0,
        0,
        0,
        1,
        0,
        0,
        0,
        0,
        1,
        0,
        -2084,
        1247.4,
        0,
        1
      ],
      "mesh": 2
    },
    {
      "matrix": [
        1,
        0,
        0,
        0,
        0,
        1,
        0,
        0,
        0,
        0,
        1,
        0,
        -2084,
        831.6000000000001,
        0,
        1
      ],
      "mesh": 2
    },
    {
      "matrix": [
        1,
        0,
        0,
        0,
        0,
        1,
        0,
        0,
        0,
        0,
        1,
        0,
        -2084,
        415.80000000000007,
        0,
        1
      ],
      "mesh": 2
    },
    {
      "matrix": [
        1,
        0,
        0,
        0,
        0,
        1,
        0,
        0,
        0,
        0,
        1,
        0,
        -2084,
        0,
        0,
        1
      ],
      "mesh": 2
    },
    {
      "matrix": [
        1,
        0,
        0,
        0,
        0,
        1,
        0,
        0,
        0,
        0,
        1,
        0,
        -2084,
        -415.79999999999995,
        0,
        1
      ],
      "mesh": 2
    },
    {
      "matrix": [
        1,
        0,
        0,
        0,
        0,
        1,
        0,
        0,
        0,
        0,
        1,
        0,
        -2084,
        -831.5999999999999,
        0,
        1
      ],
      "mesh": 2
    },
    {
      "matrix": [
        1,
        0,
        0,
        0,
        0,
        1,
        0,
        0,
        0,
        0,
        1,
        0,
        -2084,
        -1247.4,
        0,
        1
      ],
      "mesh": 2
    },
    {
      "matrix": [
        1,
        0,
        0,
        0,
        0,
        1,
        0,
        0,
        0,
        0,
        1,
        0,
        -2084,
        -1663.1999999999998,
        0,
        1
      ],
      "mesh": 2
    },
    {
      "matrix": [
        1,
        0,
        0,
        0,
        0,
        1,
        0,
        0,
        0,
        0,
        1,
        0,
        -109.61721375712295,
        1024.4700000000003,
        206.42963192342046,
        1
      ],
      "children": [
        14,
        15,
        16,
        17,
        18,
        19,
        20,
        21,
        22,
        23,
        24,
        25,
        26,
        27,
        28,
        29,
        30,
        31,
        32,
        33,
        34,
        35,
        36,
        37,
        38,
        39,
        40,
        41,
        42,
        43,
        44,
        45,
        46,
        47,
        48,
        49,
        50,
        51,
        52,
        53,
        54,
        55,
        56,
        57,
        58,
        59,
        60,
        61,
        62,
        63,
        64,
        65,
        66,
        67,
        68,
        69,
        70,
        71,
        72,
        73,
        74,
        75,
        76,
        77,
        78,
        79,
        80,
        81,
        82,
        83,
        84,
        85,
        86,
        87,
        88,
        89,
        90,
        91,
        92,
        93
      ]
    },
    {
      "mesh": 2
    },
    {
      "name": "Scene 1",
      "children": [
        1,
        6,
        7,
        8,
        9,
        10,
        11,
        12,
        13,
        94,
        95
      ]
    }
  ],
  "cameras": [
    {
      "type": "orthographic",
      "orthographic": {
        "xmag": 7.406958569418928,
        "ymag": 5.54385856116018,
        "zfar": 100000,
        "znear": 0
      },
      "name": "Camera"
    },
    {
      "type": "perspective",
      "perspective": {
        "aspectRatio": 1.3360655737704918,
        "yfov": 0.7853981633974483,
        "zfar": 100000,
        "znear": 70
      }
    }
  ],
  "bufferViews": [
    {
      "buffer": 0,
      "byteOffset": 0,
      "byteLength": 6720,
      "target": 34962,
      "byteStride": 12
    },
    {
      "buffer": 0,
      "byteOffset": 6720,
      "byteLength": 6720,
      "target": 34962,
      "byteStride": 12
    },
    {
      "buffer": 0,
      "byteOffset": 13440,
      "byteLength": 4480,
      "target": 34962,
      "byteStride": 8
    },
    {
      "buffer": 0,
      "byteOffset": 17920,
      "byteLength": 6696,
      "target": 34963
    },
    {
      "buffer": 0,
      "byteOffset": 24616,
      "byteLength": 50700,
      "target": 34962,
      "byteStride": 12
    },
    {
      "buffer": 0,
      "byteOffset": 75316,
      "byteLength": 50700,
      "target": 34962,
      "byteStride": 12
    },
    {
      "buffer": 0,
      "byteOffset": 126016,
      "byteLength": 33800,
      "target": 34962,
      "byteStride": 8
    },
    {
      "buffer": 0,
      "byteOffset": 159816,
      "byteLength": 96768,
      "target": 34963
    },
    {
      "buffer": 0,
      "byteOffset": 256584,
      "byteLength": 2400,
      "target": 34962,
      "byteStride": 12
    },
    {
      "buffer": 0,
      "byteOffset": 258984,
      "byteLength": 2400,
      "target": 34962,
      "byteStride": 12
    },
    {
      "buffer": 0,
      "byteOffset": 261384,
      "byteLength": 1600,
      "target": 34962,
      "byteStride": 8
    },
    {
      "buffer": 0,
      "byteOffset": 262984,
      "byteLength": 1872,
      "target": 34963
    },
    {
      "buffer": 0,
      "byteOffset": 264856,
      "byteLength": 50700,
      "target": 34962,
      "byteStride": 12
    },
    {
      "buffer": 0,
      "byteOffset": 315556,
      "byteLength": 50700,
      "target": 34962,
      "byteStride": 12
    },
    {
      "buffer": 0,
      "byteOffset": 366256,
      "byteLength": 33800,
      "target": 34962,
      "byteStride": 8
    },
    {
      "buffer": 0,
      "byteOffset": 400056,
      "byteLength": 96768,
      "target": 34963
    }
  ],
  "buffers": [
    {
      "byteLength": 496824,
      "uri": "data:application/octet-stream;base64,"
    }
  ],
  "accessors": [
    {
      "bufferView": 0,
      "componentType": 5126,
      "count": 560,
      "max": [
        607.8353881835938,
        69.93975067138672,
        0
      ],
      "min": [
        -17.16460418701172,
        -842.0602416992188,
        0
      ],
      "type": "VEC3"
    },
    {
      "bufferView": 1,
      "componentType": 5126,
      "count": 560,
      "max": [
        0,
        0,
        1
      ],
      "min": [
        0,
        0,
        1
      ],
      "type": "VEC3"
    },
    {
      "bufferView": 2,
      "componentType": 5126,
      "count": 560,
      "max": [
        1,
        1
      ],
      "min": [
        0,
        0
      ],
      "type": "VEC2"
    },
    {
      "bufferView": 3,
      "componentType": 5125,
      "count": 1674,
      "max": [
        559
      ],
      "min": [
        0
      ],
      "type": "SCALAR"
    },
    {
      "bufferView": 4,
      "componentType": 5126,
      "count": 4225,
      "max": [
        98.94623565673828,
        102.65980529785156,
        101.78983306884766
      ],
      "min": [
        -98.94623565673828,
        -102.65980529785156,
        -101.78983306884766
      ],
      "type": "VEC3"
    },
    {
      "bufferView": 5,
      "componentType": 5126,
      "count": 4225,
      "max": [
        1,
        1,
        1
      ],
      "min": [
        -1,
        -1,
        -1
      ],
      "type": "VEC3"
    },
    {
      "bufferView": 6,
      "componentType": 5126,
      "count": 4225,
      "max": [
        1.0078125,
        1
      ],
      "min": [
        -0.0078125,
        0
      ],
      "type": "VEC2"
    },
    {
      "bufferView": 7,
      "componentType": 5125,
      "count": 24192,
      "max": [
        4224
      ],
      "min": [
        0
      ],
      "type": "SCALAR"
    },
    {
      "bufferView": 8,
      "componentType": 5126,
      "count": 200,
      "max": [
        206.42962646484375,
        206.42962646484375,
        206.42962646484375
      ],
      "min": [
        -206.42962646484375,
        -206.42962646484375,
        -206.42962646484375
      ],
      "type": "VEC3"
    },
    {
      "bufferView": 9,
      "componentType": 5126,
      "count": 200,
      "max": [
        1,
        1,
        1
      ],
      "min": [
        -1,
        -1,
        -1
      ],
      "type": "VEC3"
    },
    {
      "bufferView": 10,
      "componentType": 5126,
      "count": 200,
      "max": [
        1,
        1
      ],
      "min": [
        0,
        0
      ],
      "type": "VEC2"
    },
    {
      "bufferView": 11,
      "componentType": 5125,
      "count": 468,
      "max": [
        199
      ],
      "min": [
        0
      ],
      "type": "SCALAR"
    },
    {
      "bufferView": 12,
      "componentType": 5126,
      "count": 4225,
      "max": [
        244.68643188476562,
        253.8697967529297,
        251.7184295654297
      ],
      "min": [
        -244.68643188476562,
        -253.8697967529297,
        -251.7184295654297
      ],
      "type": "VEC3"
    },
    {
      "bufferView": 13,
      "componentType": 5126,
      "count": 4225,
      "max": [
        1,
        1,
        1
      ],
      "min": [
        -1,
        -1,
        -1
      ],
      "type": "VEC3"
    },
    {
      "bufferView": 14,
      "componentType": 5126,
      "count": 4225,
      "max": [
        1.0078125,
        1
      ],
      "min": [
        -0.0078125,
        0
      ],
      "type": "VEC2"
    },
    {
      "bufferView": 15,
      "componentType": 5125,
      "count": 24192,
      "max": [
        4224
      ],
      "min": [
        0
      ],
      "type": "SCALAR"
    }
  ],
  "meshes": [
    {
      "primitives": [
        {
          "mode": 4,
          "attributes": {
            "POSITION": 0,
            "NORMAL": 1,
            "TEXCOORD_0": 2
          },
          "extras": {
            "parameters": {
              "width": 625,
              "subdivisions": 40,
              "roundness": 0,
              "extrudeBevelSize": 0,
              "extrudeBevelSegments": 3,
              "windingRule": 0,
              "shape": {
                "points": [
                  {
                    "fi": 0,
                    "id": "3683a2f1-57ee-4442-a988-5db45dc2bc9d",
                    "data": {
                      "roundness": 0,
                      "position": [
                        522.302978793264,
                        -828.8229707877872
                      ],
                      "areControlsDirectionsMirrored": true,
                      "controlPrevious": {
                        "position": [
                          603.3838894971013,
                          -795.3990839379888
                        ]
                      },
                      "controlNext": {
                        "position": [
                          495.8445996570928,
                          -850.7744645623385
                        ]
                      }
                    }
                  },
                  {
                    "fi": 1,
                    "id": "4a185958-98c6-4e8b-aa57-1bd945042ec3",
                    "data": {
                      "roundness": 0,
                      "position": [
                        394.6425814902178,
                        -827.1871173061126
                      ],
                      "areControlsDirectionsMirrored": true,
                      "controlPrevious": {
                        "position": [
                          424.1778301780809,
                          -842.0115374829255
                        ]
                      },
                      "controlNext": {
                        "position": [
                          306.51995792641196,
                          -782.9494625144415
                        ]
                      }
                    }
                  },
                  {
                    "fi": 2,
                    "id": "f22a7110-462a-402a-9991-c49cbaa3df35",
                    "data": {
                      "roundness": 0,
                      "position": [
                        312.3983981751706,
                        -621.8406519419791
                      ],
                      "areControlsDirectionsMirrored": true,
                      "controlPrevious": {
                        "position": [
                          334.23607496704665,
                          -697.9787882952768
                        ]
                      },
                      "controlNext": {
                        "position": [
                          305.83980781498536,
                          -598.9842179435228
                        ]
                      }
                    }
                  },
                  {
                    "fi": 3,
                    "id": "744f7890-838b-4f7c-97f5-e4a0e5dd5d68",
                    "data": {
                      "roundness": 0,
                      "position": [
                        269.33032147662084,
                        -559.3676484372373
                      ],
                      "areControlsDirectionsMirrored": true,
                      "controlPrevious": {
                        "position": [
                          287.84281994596677,
                          -574.2777434281479
                        ]
                      },
                      "controlNext": {
                        "position": [
                          206.45395238612227,
                          -502.00300572306065
                        ]
                      }
                    }
                  },
                  {
                    "fi": 4,
                    "id": "34e27e1b-32a3-48ad-b7c5-64b08865a5aa",
                    "data": {
                      "roundness": 0,
                      "position": [
                        53.45904303578616,
                        -508.7525746711816
                      ],
                      "areControlsDirectionsMirrored": true,
                      "controlPrevious": {
                        "position": [
                          123.0524342782983,
                          -542.703897095268
                        ]
                      },
                      "controlNext": {
                        "position": [
                          -17.74252266006856,
                          -474.0167922305148
                        ]
                      }
                    }
                  },
                  {
                    "fi": 5,
                    "id": "055cfe9d-5617-41b7-ab27-ff270eff2c85",
                    "data": {
                      "roundness": 0,
                      "position": [
                        0,
                        -313.90662870987654
                      ],
                      "areControlsDirectionsMirrored": true,
                      "controlPrevious": {
                        "position": [
                          -34.226961942601136,
                          -380.43044451866723
                        ]
                      },
                      "controlNext": {
                        "position": [
                          45.99952367879851,
                          -224.50228286116464
                        ]
                      }
                    }
                  },
                  {
                    "fi": 6,
                    "id": "3393c8a0-3a87-41d9-a1bb-16936be4c71f",
                    "data": {
                      "roundness": 0,
                      "position": [
                        213.9034854121088,
                        -239.4177325279563
                      ],
                      "areControlsDirectionsMirrored": true,
                      "controlPrevious": {
                        "position": [
                          135.49432310232382,
                          -254.33585953268852
                        ]
                      },
                      "controlNext": {
                        "position": [
                          226.71621798736453,
                          -236.98135500205785
                        ]
                      }
                    }
                  },
                  {
                    "fi": 7,
                    "id": "33b6359d-aa68-4dc7-930b-e000965d21df",
                    "data": {
                      "roundness": 0,
                      "position": [
                        263.1414952643143,
                        -212.41677939753197
                      ],
                      "areControlsDirectionsMirrored": true,
                      "controlPrevious": {
                        "position": [
                          251.23778871099705,
                          -219.85977887225476
                        ]
                      },
                      "controlNext": {
                        "position": [
                          345.8445100037367,
                          -168.0337451556893
                        ]
                      }
                    }
                  },
                  {
                    "fi": 8,
                    "id": "95f80434-5140-4520-a8e8-f65f90949516",
                    "data": {
                      "roundness": 0,
                      "position": [
                        339.599004615478,
                        0
                      ],
                      "areControlsDirectionsMirrored": true,
                      "controlPrevious": {
                        "position": [
                          306.91671215807753,
                          -61.16351751801991
                        ]
                      },
                      "controlNext": {
                        "position": [
                          396.82068125181024,
                          107.07129571700452
                        ]
                      }
                    }
                  },
                  {
                    "fi": 9,
                    "id": "7e4f3b63-06e3-4593-b2c7-7a6944941d57",
                    "data": {
                      "roundness": 0,
                      "position": [
                        600.4635624313728,
                        -29.853656706078
                      ],
                      "areControlsDirectionsMirrored": true,
                      "controlPrevious": {
                        "position": [
                          565.4844138437181,
                          86.59911147474418
                        ]
                      },
                      "controlNext": {
                        "position": [
                          613.2109790038645,
                          -72.29133720031864
                        ]
                      }
                    }
                  },
                  {
                    "fi": 10,
                    "id": "46db0986-537b-4f00-ae3d-53d62cc04980",
                    "data": {
                      "roundness": 0,
                      "position": [
                        590.6769580502897,
                        -141.72193881116195
                      ],
                      "areControlsDirectionsMirrored": true,
                      "controlPrevious": {
                        "position": [
                          609.1138842850328,
                          -104.85660177258343
                        ]
                      },
                      "controlNext": {
                        "position": [
                          545.3714034058167,
                          -237.13931794055014
                        ]
                      }
                    }
                  },
                  {
                    "fi": 11,
                    "id": "b5c67d12-d557-4758-81ef-043c37b86680",
                    "data": {
                      "roundness": 0,
                      "position": [
                        383.0476414954212,
                        -223.93200987982794
                      ],
                      "areControlsDirectionsMirrored": true,
                      "controlPrevious": {
                        "position": [
                          458.4336445202501,
                          -201.62175282124332
                        ]
                      },
                      "controlNext": {
                        "position": [
                          269.303331392834,
                          -257.5915024683946
                        ]
                      }
                    }
                  },
                  {
                    "fi": 12,
                    "id": "c2716565-49c0-4d01-9511-45b830dbf5a1",
                    "data": {
                      "roundness": 0,
                      "position": [
                        294.01005409124383,
                        -476.7583862816357
                      ],
                      "areControlsDirectionsMirrored": true,
                      "controlPrevious": {
                        "position": [
                          263.80815033384755,
                          -386.70344731337065
                        ]
                      },
                      "controlNext": {
                        "position": [
                          395.4252939200342,
                          -617.6238446856164
                        ]
                      }
                    }
                  },
                  {
                    "fi": 13,
                    "id": "543a97be-7680-4a83-b626-ae73033b61ad",
                    "data": {
                      "roundness": 0,
                      "position": [
                        578.7878261422173,
                        -613.2276557872369
                      ],
                      "areControlsDirectionsMirrored": true,
                      "controlPrevious": {
                        "position": [
                          481.56144731713374,
                          -485.64982558219486
                        ]
                      },
                      "controlNext": {
                        "position": [
                          632.7383046235931,
                          -684.0271802870824
                        ]
                      }
                    }
                  }
                ],
                "isClosed": true,
                "roundness": 0,
                "shapeHoles": []
              },
              "type": "VectorGeometry",
              "height": 911.9999999999998,
              "depth": 0
            },
            "shape": {
              "points": [
                522.302978793264,
                -828.8229707877872,
                603.3838894971013,
                -795.3990839379888,
                495.8445996570928,
                -850.7744645623385,
                0,
                394.6425814902178,
                -827.1871173061126,
                424.1778301780809,
                -842.0115374829255,
                306.51995792641196,
                -782.9494625144415,
                0,
                312.3983981751706,
                -621.8406519419791,
                334.23607496704665,
                -697.9787882952768,
                305.83980781498536,
                -598.9842179435228,
                0,
                269.33032147662084,
                -559.3676484372373,
                287.84281994596677,
                -574.2777434281479,
                206.45395238612227,
                -502.00300572306065,
                0,
                53.45904303578616,
                -508.7525746711816,
                123.0524342782983,
                -542.703897095268,
                -17.74252266006856,
                -474.0167922305148,
                0,
                0,
                -313.90662870987654,
                -34.226961942601136,
                -380.43044451866723,
                45.99952367879851,
                -224.50228286116464,
                0,
                213.9034854121088,
                -239.4177325279563,
                135.49432310232382,
                -254.33585953268852,
                226.71621798736453,
                -236.98135500205785,
                0,
                263.1414952643143,
                -212.41677939753197,
                251.23778871099705,
                -219.85977887225476,
                345.8445100037367,
                -168.0337451556893,
                0,
                339.599004615478,
                0,
                306.91671215807753,
                -61.16351751801991,
                396.82068125181024,
                107.07129571700452,
                0,
                600.4635624313728,
                -29.853656706078,
                565.4844138437181,
                86.59911147474418,
                613.2109790038645,
                -72.29133720031864,
                0,
                590.6769580502897,
                -141.72193881116195,
                609.1138842850328,
                -104.85660177258343,
                545.3714034058167,
                -237.13931794055014,
                0,
                383.0476414954212,
                -223.93200987982794,
                458.4336445202501,
                -201.62175282124332,
                269.303331392834,
                -257.5915024683946,
                0,
                294.01005409124383,
                -476.7583862816357,
                263.80815033384755,
                -386.70344731337065,
                395.4252939200342,
                -617.6238446856164,
                0,
                578.7878261422173,
                -613.2276557872369,
                481.56144731713374,
                -485.64982558219486,
                632.7383046235931,
                -684.0271802870824,
                0
              ],
              "shapeHoles": [],
              "isClosed": true,
              "roundness": 0
            },
            "ownerId": "6a0be5d1-5096-4f81-acef-43f7e0d13f5d",
            "type": "VectorGeometry"
          },
          "indices": 3
        }
      ]
    },
    {
      "primitives": [
        {
          "mode": 4,
          "attributes": {
            "POSITION": 4,
            "NORMAL": 5,
            "TEXCOORD_0": 6
          },
          "extras": {
            "parameters": {
              "width": 197.89246596715554,
              "widthSegments": 64,
              "heightSegments": 64,
              "phiStart": 0,
              "phiLength": 6.283185307179586,
              "thetaStart": 0,
              "thetaLength": 180,
              "height": 205.31960052505914,
              "depth": 203.57965468655297,
              "type": "SphereGeometry"
            },
            "type": "SphereGeometry"
          },
          "indices": 7
        }
      ]
    },
    {
      "primitives": [
        {
          "mode": 4,
          "attributes": {
            "POSITION": 8,
            "NORMAL": 9,
            "TEXCOORD_0": 10
          },
          "extras": {
            "parameters": {
              "width": 412.85926384684086,
              "widthSegments": 1,
              "heightSegments": 1,
              "depthSegments": 1,
              "cornerRadius": 23,
              "cornerSegments": 3,
              "height": 412.85926384684086,
              "depth": 412.85926384684086,
              "type": "CubeGeometry"
            },
            "type": "CubeGeometry"
          },
          "indices": 11
        }
      ]
    },
    {
      "primitives": [
        {
          "mode": 4,
          "attributes": {
            "POSITION": 12,
            "NORMAL": 13,
            "TEXCOORD_0": 14
          },
          "extras": {
            "parameters": {
              "width": 489.3728754232875,
              "widthSegments": 64,
              "heightSegments": 64,
              "phiStart": 0,
              "phiLength": 6.283185307179586,
              "thetaStart": 0,
              "thetaLength": 180,
              "height": 507.7396089772582,
              "depth": 503.43685650050713,
              "type": "SphereGeometry"
            },
            "type": "SphereGeometry"
          },
          "indices": 15
        }
      ]
    }
  ],
  "extensions": {
    "KHR_lights_punctual": {
      "lights": [
        {
          "name": "Directional Light",
          "color": [
            1,
            1,
            1
          ],
          "intensity": 2.199114857512855,
          "type": "directional"
        }
      ]
    }
  },
  "extensionsUsed": [
    "KHR_lights_punctual"
  ]
}